<?xml version="1.0" standalone="no"?>
<!DOCTYPE svg PUBLIC "-//W3C//DTD SVG 20010904//EN"
 "http://www.w3.org/TR/2001/REC-SVG-20010904/DTD/svg10.dtd">
<svg version="1.0" xmlns="http://www.w3.org/2000/svg"
 width="700.000000pt" height="700.000000pt" viewBox="0 0 700.000000 700.000000"
 preserveAspectRatio="xMidYMid meet">
<metadata>
Created by potrace 1.11, written by Peter Selinger 2001-2013
</metadata>
<g transform="translate(0.000000,700.000000) scale(0.100000,-0.100000)"
fill="#000000" stroke="none">
<path d="M3285 6994 c-305 -30 -421 -48 -631 -99 -476 -117 -944 -348 -1339
-661 -141 -113 -436 -408 -549 -549 -409 -516 -657 -1109 -742 -1780 -22 -172
-26 -605 -6 -765 91 -750 365 -1383 833 -1925 84 -98 299 -311 394 -392 453
-382 1018 -650 1605 -762 229 -43 374 -55 650 -55 276 0 421 12 650 55 587
112 1152 380 1605 762 95 81 310 294 394 392 459 532 735 1159 828 1880 25
196 25 614 0 810 -93 721 -369 1348 -828 1880 -84 98 -299 311 -394 392 -518
437 -1148 710 -1845 798 -117 15 -536 28 -625 19z m-105 -774 c0 -248 -3 -321
-12 -324 -7 -2 -58 -12 -113 -21 -366 -65 -756 -247 -1061 -496 -593 -483
-924 -1250 -866 -2006 60 -777 475 -1457 1138 -1865 230 -142 497 -246 759
-298 61 -11 120 -23 133 -26 l22 -4 0 -321 0 -321 -57 6 c-398 47 -850 206
-1199 422 -642 396 -1114 1016 -1323 1734 -141 486 -157 1016 -45 1505 254
1104 1092 1971 2182 2256 117 30 363 77 415 78 l27 1 0 -320z m822 296 c760
-130 1403 -519 1915 -1156 396 -493 598 -1044 597 -1630 0 -173 -2 -191 -28
-275 -46 -151 -141 -338 -250 -490 -334 -466 -870 -823 -1419 -946 -110 -24
-276 -49 -334 -49 l-43 0 -2 -447 c0 -247 -2 -540 -3 -653 l-3 -205 -98 -28
c-126 -36 -358 -83 -451 -92 l-73 -7 0 3001 0 3001 24 0 c14 0 89 -11 168 -24z"/>
<path d="M4440 4215 l0 -1515 29 0 c64 0 242 21 340 41 491 98 904 445 1021
859 28 97 37 275 21 407 -82 669 -568 1308 -1260 1653 -57 28 -114 56 -127 60
l-24 10 0 -1515z"/>
</g>
</svg>
