<svg id="Layer_1" data-name="Layer 1" xmlns="http://www.w3.org/2000/svg" viewBox="0 0 502.01 502.01"><title>favicon</title><circle cx="251.01" cy="251.01" r="251.01"/><path d="M256.22,469.75A216.59,216.59,0,0,1,103.07,100a216.58,216.58,0,0,1,306.3,0c40.91,40.9,63.44,86.14,63.44,144,0,39.84-60.08,118-150.08,122l.56,93.26A217.23,217.23,0,0,1,256.22,469.75Zm0-387.21c-94.08,0-170.62,76.54-170.62,170.62s76.54,170.61,170.62,170.61c23.52,0,44.18-110.4,66.35-110.4,66.16,0,103.07-44.37,103.07-80.33C425.64,158,350.3,82.54,256.22,82.54Z" transform="translate(-5.21 -4.99)" style="fill:#fff"/><line x1="250.52" y1="16.68" x2="250.52" y2="485.33" style="fill:none;stroke:#000;stroke-miterlimit:10;stroke-width:45px"/><line x1="295.79" y1="429.36" x2="295.79" y2="61.45" style="fill:none;stroke:#fff;stroke-miterlimit:10;stroke-width:45px"/></svg>